<svg xmlns="http://www.w3.org/2000/svg" width="48" height="48" fill="none" viewBox="0 0 48 48"><path stroke="#150C18" stroke-linecap="round" stroke-linejoin="round" stroke-width="2.25" d="M6.354 22.44v8.98C6.354 40.4 9.897 44 18.734 44h10.61c8.837 0 12.38-3.6 12.38-12.58v-8.98M24.05 24c3.602 0 6.26-2.98 5.905-6.64L28.655 4h-9.192l-1.319 13.36C17.79 21.02 20.447 24 24.05 24m12.42 0c3.976 0 6.889-3.28 6.495-7.3l-.55-5.5C41.703 6 39.735 4 34.58 4h-6.004l1.378 14.02c.335 3.3 3.267 5.98 6.515 5.98Zm-24.938 0c3.248 0 6.18-2.68 6.495-5.98L19.404 4h-6.003c-5.157 0-7.125 2-7.834 7.2l-.531 5.5C4.642 20.72 7.555 24 11.53 24ZM24.05 34c-3.287 0-4.92 1.66-4.92 5v5h9.84v-5c0-3.34-1.633-5-4.92-5"/></svg>