<svg xmlns="http://www.w3.org/2000/svg" width="49" height="48" fill="none" viewBox="0 0 49 48"><path stroke="#000" stroke-linecap="round" stroke-linejoin="round" stroke-width="2.25" d="M24.305 13.454v4.133m8.787 24.18c6.88 0 8.6-1.98 8.6-9.897v-3.959c0-7.917-1.72-9.896-8.6-9.896h-17.2c-6.88 0-8.6 1.979-8.6 9.896v3.959c0 7.918 1.72 9.897 8.6 9.897zm9.55-6.46h1.9c.76 0 .95-.872.95-4.355V29.21c0-3.484-.19-4.355-.95-4.355h-1.9c-.76 0-.95.871-.95 4.355v1.742c0 3.483.19 4.354.95 4.354Zm-38.2 0h1.9c.76 0 .95-.872.95-4.355V29.21c0-3.484-.19-4.355-.95-4.355h-1.9c-.76 0-.95.871-.95 4.355v1.742c0 3.483.19 4.354.95 4.354Zm12.164-1.64h1.9c.76 0 .95-.63.95-3.147v-1.259c0-2.517-.19-3.147-.95-3.147h-1.9c-.76 0-.95.63-.95 3.147v1.26c0 2.517.19 3.146.95 3.146m12.925 0h1.9c.76 0 .95-.63.95-3.147v-1.259c0-2.517-.19-3.147-.95-3.147h-1.9c-.76 0-.95.63-.95 3.147v1.26c0 2.517.19 3.146.95 3.146M27.82 9.654a3.42 3.42 0 1 1-6.841 0 3.42 3.42 0 0 1 6.84 0Z"/></svg>