<svg width="552" height="189" viewBox="0 0 552 189" fill="none" xmlns="http://www.w3.org/2000/svg">
<path d="M138.539 91.5153V10.5028C138.539 4.97409 143.021 0.492188 148.55 0.492188H394.755C400.284 0.492188 404.766 4.97409 404.766 10.5028V15.7351M138.539 159.353V178.481C138.539 184.01 143.021 188.492 148.55 188.492H394.755C400.284 188.492 404.766 184.01 404.766 178.481V77.3362" stroke="black" stroke-width="0.984375" stroke-linecap="round"/>
<path d="M439.477 83.1797V96.0334C439.477 97.7925 438.051 99.2186 436.292 99.2186H404.523" stroke="#FE4C00" stroke-width="0.984375" stroke-linecap="round"/>
<path d="M185.019 52.4883H358.29C363.547 52.4885 367.808 56.7501 367.808 62.0068V188H175.5V62.0068C175.5 56.75 179.762 52.4883 185.019 52.4883Z" stroke="black" stroke-width="0.984375" stroke-linecap="round"/>
<path d="M183.291 46.0312H360.016C367.785 46.0312 374.085 52.3298 374.085 60.0996V188.001H169.223V60.0996C169.223 52.33 175.521 46.0314 183.291 46.0312Z" stroke="black" stroke-width="0.984375" stroke-linecap="round"/>
<path d="M175.537 83.7891H367.8" stroke="black" stroke-width="0.984375" stroke-linecap="round"/>
<path d="M206.361 52.6895V83.9051" stroke="black" stroke-width="0.984375" stroke-linecap="round"/>
<path d="M206.361 112.619V142.2" stroke="black" stroke-width="0.984375" stroke-linecap="round"/>
<path d="M206.361 171.195V188.03" stroke="black" stroke-width="0.984375" stroke-linecap="round"/>
<path d="M182.602 83.3457V112.783" stroke="black" stroke-width="0.984375" stroke-linecap="round"/>
<path d="M182.602 141.92V171.357" stroke="black" stroke-width="0.984375" stroke-linecap="round"/>
<path d="M252.025 52.6895V83.9051" stroke="black" stroke-width="0.984375" stroke-linecap="round"/>
<path d="M252.025 112.619V142.2" stroke="black" stroke-width="0.984375" stroke-linecap="round"/>
<path d="M252.025 171.195V188.03" stroke="black" stroke-width="0.984375" stroke-linecap="round"/>
<path d="M228.264 83.3457V112.783" stroke="black" stroke-width="0.984375" stroke-linecap="round"/>
<path d="M228.264 141.92V171.357" stroke="black" stroke-width="0.984375" stroke-linecap="round"/>
<path d="M297.688 52.6895V83.9051" stroke="black" stroke-width="0.984375" stroke-linecap="round"/>
<path d="M297.688 112.619V142.2" stroke="black" stroke-width="0.984375" stroke-linecap="round"/>
<path d="M297.688 171.195V188.03" stroke="black" stroke-width="0.984375" stroke-linecap="round"/>
<path d="M273.926 83.3457V112.783" stroke="black" stroke-width="0.984375" stroke-linecap="round"/>
<path d="M273.926 141.92V171.357" stroke="black" stroke-width="0.984375" stroke-linecap="round"/>
<path d="M343.35 52.6895V83.9051" stroke="black" stroke-width="0.984375" stroke-linecap="round"/>
<path d="M343.35 112.619V142.2" stroke="black" stroke-width="0.984375" stroke-linecap="round"/>
<path d="M343.35 171.195V188.03" stroke="black" stroke-width="0.984375" stroke-linecap="round"/>
<path d="M319.59 83.3457V112.783" stroke="black" stroke-width="0.984375" stroke-linecap="round"/>
<path d="M319.59 141.92V171.357" stroke="black" stroke-width="0.984375" stroke-linecap="round"/>
<path d="M360.217 83.3457V112.783" stroke="black" stroke-width="0.984375" stroke-linecap="round"/>
<path d="M360.217 141.92V171.357" stroke="black" stroke-width="0.984375" stroke-linecap="round"/>
<path d="M175.537 112.975H367.8" stroke="black" stroke-width="0.984375" stroke-linecap="round"/>
<path d="M175.537 142.16H367.8" stroke="black" stroke-width="0.984375" stroke-linecap="round"/>
<path d="M175.537 171.344H367.8" stroke="black" stroke-width="0.984375" stroke-linecap="round"/>
<path d="M139.023 28.6328L390.17 28.6328" stroke="black" stroke-width="0.984375" stroke-linecap="round"/>
<path d="M156.07 9.73633C158.8 9.7364 161.057 12.0776 161.057 15.0215C161.057 17.9653 158.8 20.3066 156.07 20.3066C153.341 20.3066 151.084 17.9654 151.084 15.0215C151.084 12.0776 153.341 9.73633 156.07 9.73633Z" fill="#FE4C00" stroke="black" stroke-width="0.984375" stroke-linecap="round"/>
<path d="M188.406 9.73633C191.136 9.7364 193.393 12.0776 193.393 15.0215C193.393 17.9653 191.136 20.3066 188.406 20.3066C185.677 20.3066 183.42 17.9654 183.42 15.0215C183.42 12.0776 185.677 9.73633 188.406 9.73633Z" stroke="black" stroke-width="0.984375" stroke-linecap="round"/>
<path d="M172.238 9.73633C174.968 9.7364 177.225 12.0776 177.225 15.0215C177.225 17.9653 174.968 20.3066 172.238 20.3066C169.509 20.3066 167.252 17.9654 167.252 15.0215C167.252 12.0776 169.509 9.73633 172.238 9.73633Z" stroke="black" stroke-width="0.984375" stroke-linecap="round"/>
<path d="M226.691 64.2492C225.848 71.4241 225.524 78.0472 225.631 84.1596C226.715 145.75 271.656 155.495 271.656 155.495C271.656 155.495 316.591 145.746 317.675 84.1541C317.783 78.0432 317.459 71.4219 316.616 64.2492L271.656 45.457L226.691 64.2492ZM271.656 149.334C268.311 148.312 258.32 144.628 249.234 135.001C242.797 128.18 238.021 119.699 235.033 109.787C231.48 97.9989 230.44 84.1192 231.932 68.4782L271.66 51.874L311.384 68.4782C312.875 84.1146 311.836 97.9989 308.282 109.787C305.294 119.699 300.514 128.185 294.082 135.001C284.996 144.633 275.005 148.312 271.66 149.334H271.656Z" fill="white" stroke="#231F20" stroke-width="0.984375" stroke-linecap="round" stroke-linejoin="round"/>
<path d="M271.651 151.175C268.204 150.12 257.908 146.325 248.544 136.403C241.91 129.373 236.989 120.633 233.909 110.418C230.247 98.2695 229.176 83.9655 230.713 67.8463L271.656 50.7344L312.594 67.8463C314.131 83.9607 313.06 98.2695 309.398 110.418C306.318 120.633 301.392 129.378 294.763 136.403C285.399 146.329 275.103 150.12 271.656 151.175H271.651Z" fill="#FE4C00"/>
<path d="M225.631 84.1579C226.715 145.749 271.656 155.493 271.656 155.493C271.656 155.493 316.591 145.744 317.675 84.1523C318.804 149.851 271.656 160.08 271.656 160.08C271.656 160.08 224.503 149.856 225.631 84.1579Z" fill="#231F20" stroke="#231F20" stroke-width="0.984375" stroke-linecap="round" stroke-linejoin="round"/>
<path fill-rule="evenodd" clip-rule="evenodd" d="M262.153 79.3623L259.556 89.3992L259.515 89.5773C254.516 90.4155 251.275 91.7603 251.275 93.277C251.275 95.8192 260.4 97.8825 271.655 97.8825C282.911 97.8825 292.036 95.8192 292.036 93.277C292.036 91.7603 288.795 90.4155 283.796 89.5773L283.755 89.3992L281.158 79.3593C280.733 77.7228 279.126 76.7526 277.551 77.1056C275.764 77.5048 273.461 77.9254 271.655 77.9254C269.85 77.9254 267.547 77.5079 265.76 77.1056C264.185 76.7526 262.578 77.7197 262.153 79.3623ZM262.196 91.2352C262.206 91.1348 262.234 91.0373 262.279 90.9484C262.324 90.8594 262.386 90.7808 262.46 90.7169C262.534 90.653 262.619 90.6052 262.711 90.5761C262.803 90.547 262.899 90.5373 262.994 90.5475C265.614 90.83 268.555 90.9866 271.655 90.9866C274.548 90.9915 277.439 90.845 280.317 90.5475C280.509 90.5271 280.701 90.5882 280.851 90.7171C281.001 90.8461 281.095 91.0325 281.115 91.2352C281.134 91.438 281.076 91.6406 280.954 91.7983C280.832 91.9561 280.655 92.0562 280.463 92.0765C277.79 92.3621 274.803 92.5217 271.655 92.5217C268.508 92.5217 265.521 92.3621 262.848 92.0765C262.753 92.0665 262.661 92.0368 262.576 91.9891C262.492 91.9414 262.417 91.8767 262.357 91.7985C262.296 91.7204 262.251 91.6304 262.223 91.5338C262.196 91.4371 262.187 91.3357 262.196 91.2352ZM258.554 104.023H264.377C264.763 104.023 265.133 104.185 265.406 104.473C265.679 104.761 265.833 105.151 265.833 105.558V108.629C265.833 109.85 265.372 111.021 264.553 111.885C263.734 112.749 262.624 113.234 261.465 113.234C260.307 113.234 259.196 112.749 258.377 111.885C257.558 111.021 257.098 109.85 257.098 108.629V105.558C257.098 105.151 257.252 104.761 257.525 104.473C257.798 104.185 258.168 104.023 258.554 104.023ZM254.187 105.558C254.189 105.018 254.271 104.506 254.434 104.023H254.187C253.801 104.023 253.43 103.861 253.157 103.573C252.884 103.286 252.731 102.895 252.731 102.488C252.731 102.081 252.884 101.69 253.157 101.402C253.43 101.115 253.801 100.953 254.187 100.953H264.377C265.44 100.953 266.467 101.362 267.265 102.104C268.062 102.845 268.576 103.869 268.709 104.981C270.63 104.369 272.68 104.369 274.602 104.981C274.735 103.869 275.249 102.845 276.046 102.104C276.844 101.362 277.871 100.953 278.934 100.953H289.124C289.51 100.953 289.88 101.115 290.153 101.402C290.426 101.69 290.58 102.081 290.58 102.488C290.58 102.895 290.426 103.286 290.153 103.573C289.88 103.861 289.51 104.023 289.124 104.023H288.877C289.04 104.506 289.122 105.018 289.124 105.558V108.629C289.124 110.664 288.357 112.617 286.992 114.056C285.627 115.496 283.776 116.304 281.846 116.304C279.915 116.304 278.064 115.496 276.699 114.056C275.334 112.617 274.567 110.664 274.567 108.629V108.199L273.956 107.984C272.462 107.459 270.848 107.459 269.355 107.984L268.744 108.199V108.629C268.744 110.664 267.977 112.617 266.612 114.056C265.247 115.496 263.396 116.304 261.465 116.304C259.535 116.304 257.684 115.496 256.319 114.056C254.954 112.617 254.187 110.664 254.187 108.629V105.558ZM278.934 104.023H284.757C285.143 104.023 285.513 104.185 285.786 104.473C286.059 104.761 286.213 105.151 286.213 105.558V108.629C286.213 109.85 285.753 111.021 284.934 111.885C284.115 112.749 283.004 113.234 281.846 113.234C280.687 113.234 279.576 112.749 278.757 111.885C277.938 111.021 277.478 109.85 277.478 108.629V105.558C277.478 105.151 277.632 104.761 277.905 104.473C278.178 104.185 278.548 104.023 278.934 104.023Z" fill="#FFFFFE"/>
<path d="M159.179 91.0117C162.697 91.0117 165.55 93.8636 165.55 97.3818V105.32C165.55 101.802 162.697 98.9492 159.179 98.9492H83.626C80.1078 98.9494 77.2559 101.802 77.2559 105.32V97.3818C77.2559 93.8637 80.1079 91.0119 83.626 91.0117H159.179Z" fill="black"/>
<rect x="77.7461" y="98.6543" width="87.3092" height="60.6984" rx="5.87821" stroke="black" stroke-width="0.984375" stroke-linecap="round"/>
<path d="M85.7344 107.654H105.893" stroke="black" stroke-width="0.984375" stroke-linecap="round"/>
<path d="M120.931 111.028C121.795 109.451 124.06 109.451 124.923 111.028L142.855 143.783C143.685 145.299 142.588 147.151 140.86 147.151H104.995C103.266 147.151 102.169 145.299 102.999 143.783L120.931 111.028Z" fill="#FEC0A5"/>
<path d="M123.029 133.581V120.979" stroke="white" stroke-width="3.9375" stroke-linecap="round"/>
<path d="M123.059 137.932C123.913 137.932 124.65 138.67 124.65 139.637C124.65 140.604 123.913 141.343 123.059 141.343C122.204 141.343 121.467 140.604 121.467 139.637C121.467 138.67 122.204 137.932 123.059 137.932Z" fill="white" stroke="white" stroke-width="0.984375" stroke-linecap="round"/>
<path d="M478.284 77.3467C478.284 80.8648 475.431 83.7168 471.913 83.7168H396.36C392.842 83.7166 389.99 80.8647 389.99 77.3467V70.3984C389.99 73.9166 392.842 76.7694 396.36 76.7695H471.913C475.431 76.7695 478.284 73.9167 478.284 70.3984V77.3467Z" fill="#150C18"/>
<rect x="390.484" y="15.8926" width="87.3092" height="60.6984" rx="5.87821" stroke="black" stroke-width="0.984375" stroke-linecap="round"/>
<path d="M397.939 24.3652H415.022" stroke="black" stroke-width="0.984375" stroke-linecap="round"/>
<path d="M433.666 28.2663C434.529 26.6895 436.794 26.6895 437.657 28.2663L455.59 61.0212C456.42 62.5374 455.323 64.3889 453.594 64.3889H417.729C416 64.3889 414.903 62.5374 415.733 61.0212L433.666 28.2663Z" fill="#FEC0A5"/>
<path d="M435.766 50.8193V38.2168" stroke="white" stroke-width="3.9375" stroke-linecap="round"/>
<path d="M435.799 55.1699C436.653 55.1699 437.39 55.9083 437.391 56.875C437.391 57.8419 436.654 58.581 435.799 58.5811C434.944 58.5811 434.207 57.8419 434.207 56.875C434.207 55.9083 434.944 55.1699 435.799 55.1699Z" fill="white" stroke="white" stroke-width="0.984375" stroke-linecap="round"/>
<path d="M103.382 30.1211C91.1969 30.1211 81.2745 40.5457 81.2744 53.4609C81.2744 66.3763 91.1969 76.8018 103.382 76.8018C115.567 76.8015 125.488 66.3761 125.488 53.4609C125.488 40.5459 115.567 30.1213 103.382 30.1211Z" stroke="black" stroke-width="0.984375" stroke-linecap="round"/>
<path d="M103.383 39.1055C96.7477 39.1055 91.369 44.82 91.369 51.8692C91.369 55.2235 92.5873 58.275 94.579 60.5529C95.2048 61.2686 95.627 62.1589 95.627 63.1096V64.471C95.627 66.3221 97.1276 67.8226 98.9786 67.8226H108.091C109.942 67.8226 111.443 66.3221 111.443 64.471V62.7604C111.443 61.8489 111.831 60.9908 112.412 60.2883C114.27 58.0412 115.396 55.0951 115.396 51.8692C115.396 44.82 110.018 39.1055 103.383 39.1055Z" fill="#FF4C00" stroke="#221F20" stroke-width="0.984375" stroke-linecap="round"/>
<path d="M108.588 63.1777V67.8232" stroke="#221F20" stroke-width="0.984375" stroke-linecap="round"/>
<path d="M105.984 63.1777V67.8232" stroke="#221F20" stroke-width="0.984375" stroke-linecap="round"/>
<path d="M103.381 63.1777V67.8232" stroke="#221F20" stroke-width="0.984375" stroke-linecap="round"/>
<path d="M100.777 63.1777V67.8232" stroke="#221F20" stroke-width="0.984375" stroke-linecap="round"/>
<path d="M98.1758 63.1777V67.8232" stroke="#221F20" stroke-width="0.984375" stroke-linecap="round"/>
<path d="M96.6918 55.8738C95.2879 55.0191 94.6732 53.2765 95.1171 51.7069C95.2443 51.2571 95.7558 51.124 96.151 51.3646L100.665 54.1131C101.06 54.3537 101.207 54.8875 100.901 55.2285C99.834 56.4187 98.0956 56.7286 96.6918 55.8738Z" fill="white"/>
<path d="M110.019 55.8738C111.423 55.0191 112.038 53.2765 111.594 51.7069C111.467 51.2571 110.955 51.124 110.56 51.3646L106.046 54.1131C105.65 54.3537 105.504 54.8875 105.81 55.2285C106.877 56.4187 108.615 56.7286 110.019 55.8738Z" fill="white"/>
<path d="M443.856 114.754C431.672 114.754 421.749 125.179 421.749 138.094C421.749 151.009 431.671 161.435 443.856 161.435C456.041 161.434 465.963 151.009 465.963 138.094C465.963 125.179 456.041 114.754 443.856 114.754Z" stroke="black" stroke-width="0.984375" stroke-linecap="round"/>
<path d="M443.853 123.736C437.218 123.736 431.84 129.451 431.84 136.5C431.84 139.854 433.058 142.906 435.05 145.184C435.676 145.899 436.098 146.79 436.098 147.74V149.102C436.098 150.953 437.598 152.453 439.449 152.453H448.562C450.413 152.453 451.913 150.953 451.913 149.102V147.391C451.913 146.48 452.302 145.622 452.883 144.919C454.741 142.672 455.867 139.726 455.867 136.5C455.867 129.451 450.488 123.736 443.853 123.736Z" fill="#FF4C00" stroke="#221F20" stroke-width="0.984375" stroke-linecap="round"/>
<path d="M449.061 147.807V152.452" stroke="#221F20" stroke-width="0.984375" stroke-linecap="round"/>
<path d="M446.453 147.807V152.452" stroke="#221F20" stroke-width="0.984375" stroke-linecap="round"/>
<path d="M443.852 147.807V152.452" stroke="#221F20" stroke-width="0.984375" stroke-linecap="round"/>
<path d="M441.25 147.807V152.452" stroke="#221F20" stroke-width="0.984375" stroke-linecap="round"/>
<path d="M438.645 147.807V152.452" stroke="#221F20" stroke-width="0.984375" stroke-linecap="round"/>
<path d="M437.159 140.503C435.755 139.648 435.14 137.905 435.584 136.336C435.711 135.886 436.223 135.753 436.618 135.994L441.132 138.742C441.527 138.983 441.674 139.516 441.368 139.857C440.301 141.048 438.562 141.357 437.159 140.503Z" fill="white"/>
<path d="M450.49 140.503C451.894 139.648 452.508 137.905 452.065 136.336C451.937 135.886 451.426 135.753 451.031 135.994L446.516 138.742C446.121 138.983 445.975 139.516 446.281 139.857C447.348 141.048 449.086 141.357 450.49 140.503Z" fill="white"/>
<path d="M54.1318 8.25C46.6231 8.25 40.4922 14.6772 40.4922 22.6611C40.4922 30.6451 46.6231 37.0723 54.1318 37.0723C61.6405 37.0721 67.7714 30.645 67.7715 22.6611C67.7715 14.6772 61.6405 8.25012 54.1318 8.25Z" stroke="black" stroke-width="0.984375" stroke-linecap="round"/>
<path d="M54.1319 13.6816C49.9828 13.6816 46.6192 17.2551 46.6192 21.6633C46.6192 23.7609 47.3811 25.6691 48.6266 27.0935C49.0179 27.5411 49.2819 28.0978 49.2819 28.6923V29.5437C49.2819 30.7012 50.2203 31.6396 51.3778 31.6396H57.0761C58.2337 31.6396 59.172 30.7012 59.172 29.5437V28.474C59.172 27.904 59.415 27.3673 59.7783 26.928C60.94 25.5229 61.6445 23.6806 61.6445 21.6633C61.6445 17.2551 58.281 13.6816 54.1319 13.6816Z" fill="#FF4C00" stroke="#221F20" stroke-width="0.984375" stroke-linecap="round"/>
<path d="M57.3867 28.7344V31.6393" stroke="#221F20" stroke-width="0.984375" stroke-linecap="round"/>
<path d="M55.7598 28.7344V31.6393" stroke="#221F20" stroke-width="0.984375" stroke-linecap="round"/>
<path d="M54.1289 28.7344V31.6393" stroke="#221F20" stroke-width="0.984375" stroke-linecap="round"/>
<path d="M52.5039 28.7344V31.6393" stroke="#221F20" stroke-width="0.984375" stroke-linecap="round"/>
<path d="M50.875 28.7344V31.6393" stroke="#221F20" stroke-width="0.984375" stroke-linecap="round"/>
<path d="M49.9447 24.1684C49.0668 23.6339 48.6824 22.5442 48.96 21.5627C49.0395 21.2814 49.3594 21.1981 49.6065 21.3486L52.4294 23.0674C52.6766 23.2178 52.7681 23.5516 52.5769 23.7649C51.9097 24.5092 50.8226 24.7029 49.9447 24.1684Z" fill="white"/>
<path d="M58.2819 24.1684C59.1598 23.6339 59.5442 22.5442 59.2666 21.5627C59.187 21.2814 58.8672 21.1981 58.62 21.3486L55.7971 23.0674C55.55 23.2178 55.4584 23.5516 55.6496 23.7649C56.3169 24.5092 57.404 24.7029 58.2819 24.1684Z" fill="white"/>
<path d="M497.868 84.7891C490.359 84.7891 484.229 91.2162 484.229 99.2002C484.229 107.184 490.359 113.611 497.868 113.611C505.377 113.611 511.508 107.184 511.508 99.2002C511.508 91.2163 505.377 84.7892 497.868 84.7891Z" stroke="black" stroke-width="0.984375" stroke-linecap="round"/>
<path d="M497.868 90.2227C493.719 90.2227 490.356 93.7962 490.356 98.2043C490.356 100.302 491.117 102.21 492.363 103.635C492.754 104.082 493.018 104.639 493.018 105.233V106.085C493.018 107.242 493.957 108.181 495.114 108.181H500.812C501.97 108.181 502.908 107.242 502.908 106.085V105.015C502.908 104.445 503.151 103.908 503.515 103.469C504.676 102.064 505.381 100.222 505.381 98.2043C505.381 93.7962 502.017 90.2227 497.868 90.2227Z" fill="#FF4C00" stroke="#221F20" stroke-width="0.984375" stroke-linecap="round"/>
<path d="M501.127 105.273V108.178" stroke="#221F20" stroke-width="0.984375" stroke-linecap="round"/>
<path d="M499.496 105.273V108.178" stroke="#221F20" stroke-width="0.984375" stroke-linecap="round"/>
<path d="M497.869 105.273V108.178" stroke="#221F20" stroke-width="0.984375" stroke-linecap="round"/>
<path d="M496.242 105.273V108.178" stroke="#221F20" stroke-width="0.984375" stroke-linecap="round"/>
<path d="M494.615 105.273V108.178" stroke="#221F20" stroke-width="0.984375" stroke-linecap="round"/>
<path d="M493.683 100.707C492.805 100.173 492.421 99.0833 492.698 98.1017C492.778 97.8205 493.098 97.7372 493.345 97.8877L496.168 99.6064C496.415 99.7569 496.506 100.091 496.315 100.304C495.648 101.048 494.561 101.242 493.683 100.707Z" fill="white"/>
<path d="M502.02 100.707C502.898 100.173 503.282 99.0833 503.005 98.1017C502.925 97.8205 502.605 97.7372 502.358 97.8877L499.535 99.6064C499.288 99.7569 499.197 100.091 499.388 100.304C500.055 101.048 501.142 101.242 502.02 100.707Z" fill="white"/>
<ellipse cx="439.066" cy="83.8086" rx="3.30222" ry="3.48242" fill="#FE4C00"/>
<path d="M92.0918 159.227V171.638C92.0918 173.397 93.5179 174.823 95.277 174.823H139.093" stroke="#FE4C00" stroke-width="0.984375" stroke-linecap="round"/>
<ellipse cx="138.443" cy="174.221" rx="3.30222" ry="3.48242" fill="#FE4C00"/>
</svg>
